<?xml version="1.0" encoding="UTF-8"?>
<svg xmlns="http://www.w3.org/2000/svg" viewBox="0 0 32 32">
  <defs>
    <linearGradient id="logoGradient" x1="0%" y1="0%" x2="100%" y2="100%">
      <stop offset="0%" style="stop-color:#002868"/>
      <stop offset="50%" style="stop-color:#BF0A30"/>
      <stop offset="100%" style="stop-color:#001a4d"/>
    </linearGradient>
  </defs>

  <!-- Rounded square background -->
  <rect x="0" y="0" width="32" height="32" rx="4" fill="url(#logoGradient)"/>

  <!-- Gavel - scaled larger to fit 32x32 -->
  <g fill="#FFFFFF" transform="translate(1, 0) scale(0.02)">
    <path d="m 659.54066,226.14631 c -10.01722,-4.73511 -21.89366,-0.48273 -26.6288,9.5345 l -12.20976,25.82993 c -4.73511,10.01723 -0.48273,21.89367 9.5345,26.6288 L 867.8814,400.47372 c 10.01726,4.73513 21.8937,0.48274 26.62882,-9.5345 l 12.20974,-25.82992 c 4.73514,-10.01723 0.48275,-21.89368 -9.53447,-26.62881 L 659.54066,226.14631 Z m -23.9015,86.66888 -151.40655,320.303 206.64642,97.68134 151.40663,-320.30305 -206.64646,-97.68133 z M 830.07909,546.93997 c -11.37093,-5.37501 -24.85287,-0.54779 -30.22787,10.82313 l -31.87822,67.4389 c -5.37502,11.37091 -0.54775,24.85287 10.82314,30.22788 L 1406.7672,952.26996 c 11.3709,5.375 24.85284,0.54778 30.22785,-10.82314 l 31.87821,-67.4389 c 5.37502,-11.37092 0.54779,-24.85284 -10.82314,-30.22786 L 830.07909,546.93997 Z m -368.34435,97.66589 c -10.01724,-4.73511 -21.89369,-0.48272 -26.6288,9.5345 l -12.21057,25.8317 c -4.73515,10.01722 -0.48276,21.89368 9.5345,26.62879 l 237.64479,112.33419 c 10.01724,4.73512 21.89367,0.48274 26.6288,-9.5345 l 12.21058,-25.83166 c 4.73515,-10.01725 0.48275,-21.89371 -9.53449,-26.62883 L 461.73474,644.60586 Z"/>
    <path d="m 239.76227,974.28485 c -15.69666,0 -28.33398,12.63732 -28.33398,28.33398 l 0,40.47657 c 0,0.884 0.0466,1.7562 0.125,2.6191 l -28.81446,0 c -18.92833,0 -26.1407,17.0241 -34.16796,34.1660 l -22.85714,48.8106 c -8.02726,17.1419 15.23963,34.166 34.16796,34.166 l 583.09459,0 c 18.92833,0 43.72806,-17.8305 34.16601,-34.166 l -28.57143,-48.8106 c -9.56205,-16.3355 -15.23768,-34.1660 -34.16601,-34.1660 l -28.81446,0 c 0.0785,-0.8629 0.12305,-1.7351 0.12305,-2.6191 l 0,-40.47657 c 0,-15.69666 -12.63537,-28.33398 -28.33204,-28.33398 z"/>
  </g>
</svg>
